<svg version="1.1" height="25px" width="25px" viewBox="0.0 0.0 25.0 25.0" fill="none" stroke="none" stroke-linecap="square" stroke-miterlimit="10" xmlns:xlink="http://www.w3.org/1999/xlink" xmlns="http://www.w3.org/2000/svg"><clipPath id="p.0"><path d="m0 0l25.0 0l0 25.0l-25.0 0l0 -25.0z" clip-rule="nonzero"/></clipPath><g clip-path="url(#p.0)"><path fill="#000000" fill-opacity="0.0" d="m0 0l25.0 0l0 25.0l-25.0 0z" fill-rule="evenodd"/><path fill="#000000" fill-opacity="0.0" d="m0.47148976 0.007874016l0 25.039371" fill-rule="evenodd"/><path stroke="#6d9eeb" stroke-width="1.0" stroke-linejoin="round" stroke-linecap="butt" d="m0.47148976 0.007874016l0 25.039371" fill-rule="evenodd"/><path fill="#000000" fill-opacity="0.0" d="m25.00466 0.49958163l-25.007874 0" fill-rule="evenodd"/><path stroke="#6d9eeb" stroke-width="1.0" stroke-linejoin="round" stroke-linecap="butt" d="m25.00466 0.49958163l-25.007874 0" fill-rule="evenodd"/><path fill="#000000" fill-opacity="0.0" d="m25.028164 24.543995l-25.007874 0" fill-rule="evenodd"/><path stroke="#6d9eeb" stroke-width="1.0" stroke-linejoin="round" stroke-linecap="butt" d="m25.028164 24.543995l-25.007874 0" fill-rule="evenodd"/><path fill="#000000" fill-opacity="0.0" d="m24.520414 0.69816273l0.031496048 24.125984" fill-rule="evenodd"/><path stroke="#6d9eeb" stroke-width="1.0" stroke-linejoin="round" stroke-linecap="butt" d="m24.520414 0.69816273l0.031496048 24.125984" fill-rule="evenodd"/><path fill="#000000" fill-opacity="0.0" d="m2.6688776 7.102362l0 0c0 -2.3135076 1.8754687 -4.1889763 4.1889763 -4.1889763l0 0c1.1109858 0 2.176468 0.44133735 2.9620543 1.2269225c0.7855854 0.7855859 1.226922 1.851068 1.226922 2.9620538l0 0c0 2.3135076 -1.8754683 4.188977 -4.1889763 4.188977l0 0c-2.3135076 0 -4.1889763 -1.8754692 -4.1889763 -4.188977z" fill-rule="evenodd"/><path stroke="#6d9eeb" stroke-width="1.0" stroke-linejoin="round" stroke-linecap="butt" d="m2.6688776 7.102362l0 0c0 -2.3135076 1.8754687 -4.1889763 4.1889763 -4.1889763l0 0c1.1109858 0 2.176468 0.44133735 2.9620543 1.2269225c0.7855854 0.7855859 1.226922 1.851068 1.226922 2.9620538l0 0c0 2.3135076 -1.8754683 4.188977 -4.1889763 4.188977l0 0c-2.3135076 0 -4.1889763 -1.8754692 -4.1889763 -4.188977z" fill-rule="evenodd"/><path fill="#000000" fill-opacity="0.0" d="m2.5035233 17.917322l0 0c0 -2.313507 1.8754687 -4.1889753 4.1889763 -4.1889753l0 0c1.1109858 0 2.1764684 0.44133663 2.9620538 1.226922c0.7855854 0.7855854 1.226923 1.8510685 1.226923 2.9620533l0 0c0 2.313509 -1.8754692 4.1889763 -4.188977 4.1889763l0 0c-2.3135076 0 -4.1889763 -1.8754673 -4.1889763 -4.1889763z" fill-rule="evenodd"/><path stroke="#6d9eeb" stroke-width="1.0" stroke-linejoin="round" stroke-linecap="butt" d="m2.5035233 17.917322l0 0c0 -2.313507 1.8754687 -4.1889753 4.1889763 -4.1889753l0 0c1.1109858 0 2.1764684 0.44133663 2.9620538 1.226922c0.7855854 0.7855854 1.226923 1.8510685 1.226923 2.9620533l0 0c0 2.313509 -1.8754692 4.1889763 -4.188977 4.1889763l0 0c-2.3135076 0 -4.1889763 -1.8754673 -4.1889763 -4.1889763z" fill-rule="evenodd"/><path fill="#000000" fill-opacity="0.0" d="m13.886725 17.917322l0 0c0 -2.313507 1.8754683 -4.1889753 4.1889772 -4.1889753l0 0c1.1109848 0 2.176468 0.44133663 2.9620533 1.226922c0.7855854 0.7855854 1.226923 1.8510685 1.226923 2.9620533l0 0c0 2.313509 -1.8754692 4.1889763 -4.1889763 4.1889763l0 0c-2.313509 0 -4.1889772 -1.8754673 -4.1889772 -4.1889763z" fill-rule="evenodd"/><path stroke="#6d9eeb" stroke-width="1.0" stroke-linejoin="round" stroke-linecap="butt" d="m13.886725 17.917322l0 0c0 -2.313507 1.8754683 -4.1889753 4.1889772 -4.1889753l0 0c1.1109848 0 2.176468 0.44133663 2.9620533 1.226922c0.7855854 0.7855854 1.226923 1.8510685 1.226923 2.9620533l0 0c0 2.313509 -1.8754692 4.1889763 -4.1889763 4.1889763l0 0c-2.313509 0 -4.1889772 -1.8754673 -4.1889772 -4.1889763z" fill-rule="evenodd"/><path fill="#000000" fill-opacity="0.0" d="m13.886725 7.102362l0 0c0 -2.3135076 1.8754683 -4.1889763 4.1889772 -4.1889763l0 0c1.1109848 0 2.176468 0.44133735 2.9620533 1.2269225c0.7855854 0.7855859 1.226923 1.851068 1.226923 2.9620538l0 0c0 2.3135076 -1.8754692 4.188977 -4.1889763 4.188977l0 0c-2.313509 0 -4.1889772 -1.8754692 -4.1889772 -4.188977z" fill-rule="evenodd"/><path stroke="#6d9eeb" stroke-width="1.0" stroke-linejoin="round" stroke-linecap="butt" d="m13.886725 7.102362l0 0c0 -2.3135076 1.8754683 -4.1889763 4.1889772 -4.1889763l0 0c1.1109848 0 2.176468 0.44133735 2.9620533 1.2269225c0.7855854 0.7855859 1.226923 1.851068 1.226923 2.9620538l0 0c0 2.3135076 -1.8754692 4.188977 -4.1889763 4.188977l0 0c-2.313509 0 -4.1889772 -1.8754692 -4.1889772 -4.188977z" fill-rule="evenodd"/></g></svg>