<svg version="1.1" height="25px" width="25px" viewBox="0.0 0.0 25.0 25.0" fill="none" stroke="none" stroke-linecap="square" stroke-miterlimit="10" xmlns:xlink="http://www.w3.org/1999/xlink" xmlns="http://www.w3.org/2000/svg"><clipPath id="p.0"><path d="m0 0l25.0 0l0 25.0l-25.0 0l0 -25.0z" clip-rule="nonzero"/></clipPath><g clip-path="url(#p.0)"><path fill="#000000" fill-opacity="0.0" d="m0 0l25.0 0l0 25.0l-25.0 0z" fill-rule="evenodd"/><path fill="#000000" fill-opacity="0.0" d="m18.759268 0.42540368l-11.811024 11.811024" fill-rule="evenodd"/><path stroke="#6d9eeb" stroke-width="1.0" stroke-linejoin="round" stroke-linecap="butt" d="m18.759268 0.42540368l-11.811024 11.811024" fill-rule="evenodd"/><path fill="#000000" fill-opacity="0.0" d="m18.677166 24.220472l-12.220473 -12.220472" fill-rule="evenodd"/><path stroke="#6d9eeb" stroke-width="1.0" stroke-linejoin="round" stroke-linecap="butt" d="m18.677166 24.220472l-12.220473 -12.220472" fill-rule="evenodd"/><path fill="#6d9eeb" d="m12.818897 12.501312l0 0c0 -1.6177158 1.3114185 -2.9291334 2.9291344 -2.9291334l0 0c0.77685356 0 1.5218906 0.30860424 2.0712109 0.8579235c0.5493183 0.5493183 0.8579235 1.2943554 0.8579235 2.07121l0 0c0 1.6177158 -1.3114185 2.9291344 -2.9291344 2.9291344l0 0c-1.6177158 0 -2.9291344 -1.3114185 -2.9291344 -2.9291344z" fill-rule="evenodd"/></g></svg>