<svg version="1.1" height="25px" width="25px" viewBox="0.0 0.0 25.0 25.0" fill="none" stroke="none" stroke-linecap="square" stroke-miterlimit="10" xmlns:xlink="http://www.w3.org/1999/xlink" xmlns="http://www.w3.org/2000/svg"><clipPath id="p.0"><path d="m0 0l25.0 0l0 25.0l-25.0 0l0 -25.0z" clip-rule="nonzero"/></clipPath><g clip-path="url(#p.0)"><path fill="#000000" fill-opacity="0.0" d="m0 0l25.0 0l0 25.0l-25.0 0z" fill-rule="evenodd"/><path fill="#000000" fill-opacity="0.0" d="m5.2755904 9.645669l0 15.338582" fill-rule="evenodd"/><path stroke="#6d9eeb" stroke-width="1.0" stroke-linejoin="round" stroke-linecap="butt" d="m5.2755904 9.645669l0 15.338582" fill-rule="evenodd"/><path fill="#000000" fill-opacity="0.0" d="m20.004238 10.116936l-15.0236225 0" fill-rule="evenodd"/><path stroke="#6d9eeb" stroke-width="1.0" stroke-linejoin="round" stroke-linecap="butt" d="m20.004238 10.116936l-15.0236225 0" fill-rule="evenodd"/><path fill="#000000" fill-opacity="0.0" d="m20.018349 24.552496l-15.0236225 0" fill-rule="evenodd"/><path stroke="#6d9eeb" stroke-width="1.0" stroke-linejoin="round" stroke-linecap="butt" d="m20.018349 24.552496l-15.0236225 0" fill-rule="evenodd"/><path fill="#000000" fill-opacity="0.0" d="m19.745407 9.606299l0 15.401574" fill-rule="evenodd"/><path stroke="#6d9eeb" stroke-width="1.0" stroke-linejoin="round" stroke-linecap="butt" d="m19.745407 9.606299l0 15.401574" fill-rule="evenodd"/><path fill="#000000" fill-opacity="0.0" d="m24.485254 13.096272l-11.811024 -11.811024" fill-rule="evenodd"/><path stroke="#6d9eeb" stroke-width="1.0" stroke-linejoin="round" stroke-linecap="butt" d="m24.485254 13.096272l-11.811024 -11.811024" fill-rule="evenodd"/><path fill="#000000" fill-opacity="0.0" d="m0.6901853 13.014171l12.220472 -12.220472" fill-rule="evenodd"/><path stroke="#6d9eeb" stroke-width="1.0" stroke-linejoin="round" stroke-linecap="butt" d="m0.6901853 13.014171l12.220472 -12.220472" fill-rule="evenodd"/></g></svg>