<svg version="1.1" height="25px" width="25px" viewBox="0.0 0.0 25.0 25.0" fill="none" stroke="none" stroke-linecap="square" stroke-miterlimit="10" xmlns:xlink="http://www.w3.org/1999/xlink" xmlns="http://www.w3.org/2000/svg"><clipPath id="p.0"><path d="m0 0l25.0 0l0 25.0l-25.0 0l0 -25.0z" clip-rule="nonzero"/></clipPath><g clip-path="url(#p.0)"><path fill="#000000" fill-opacity="0.0" d="m0 0l25.0 0l0 25.0l-25.0 0z" fill-rule="evenodd"/><path fill="#000000" fill-opacity="0.0" d="m0.4797903 8.4028225l0 16.661417" fill-rule="evenodd"/><path stroke="#6d9eeb" stroke-width="1.0" stroke-linejoin="round" stroke-linecap="butt" d="m0.4797903 8.4028225l0 16.661417" fill-rule="evenodd"/><path fill="#000000" fill-opacity="0.0" d="m8.005249 8.729659l-7.9999995 0" fill-rule="evenodd"/><path stroke="#6d9eeb" stroke-width="1.0" stroke-linejoin="round" stroke-linecap="butt" d="m8.005249 8.729659l-7.9999995 0" fill-rule="evenodd"/><path fill="#000000" fill-opacity="0.0" d="m17.401018 24.709938l-17.448818 0.031496048" fill-rule="evenodd"/><path stroke="#6d9eeb" stroke-width="1.0" stroke-linejoin="round" stroke-linecap="butt" d="m17.401018 24.709938l-17.448818 0.031496048" fill-rule="evenodd"/><path fill="#000000" fill-opacity="0.0" d="m16.912235 17.406824l-0.031496048 7.496063" fill-rule="evenodd"/><path stroke="#6d9eeb" stroke-width="1.0" stroke-linejoin="round" stroke-linecap="butt" d="m16.912235 17.406824l-0.031496048 7.496063" fill-rule="evenodd"/><path fill="#000000" fill-opacity="0.0" d="m2.1043656 13.1213045l0 0c0 -1.5394392 1.2479622 -2.7874012 2.7874014 -2.7874012l0 0c0.73926497 0 1.4482517 0.2936716 1.9709907 0.816411c0.5227394 0.5227394 0.816411 1.2317257 0.816411 1.9709902l0 0c0 1.5394392 -1.247962 2.7874022 -2.7874017 2.7874022l0 0c-1.5394392 0 -2.7874014 -1.247963 -2.7874014 -2.7874022z" fill-rule="evenodd"/><path stroke="#6d9eeb" stroke-width="1.0" stroke-linejoin="round" stroke-linecap="butt" d="m2.1043656 13.1213045l0 0c0 -1.5394392 1.2479622 -2.7874012 2.7874014 -2.7874012l0 0c0.73926497 0 1.4482517 0.2936716 1.9709907 0.816411c0.5227394 0.5227394 0.816411 1.2317257 0.816411 1.9709902l0 0c0 1.5394392 -1.247962 2.7874022 -2.7874017 2.7874022l0 0c-1.5394392 0 -2.7874014 -1.247963 -2.7874014 -2.7874022z" fill-rule="evenodd"/><path fill="#000000" fill-opacity="0.0" d="m1.9944719 20.309217l0 0c0 -1.5394402 1.2479621 -2.7874012 2.7874017 -2.7874012l0 0c0.7392645 0 1.4482512 0.29367065 1.9709902 0.81641006c0.5227394 0.5227394 0.816411 1.2317257 0.816411 1.9709911l0 0c0 1.5394402 -1.247962 2.7874012 -2.7874012 2.7874012l0 0c-1.5394397 0 -2.7874017 -1.247961 -2.7874017 -2.7874012z" fill-rule="evenodd"/><path stroke="#6d9eeb" stroke-width="1.0" stroke-linejoin="round" stroke-linecap="butt" d="m1.9944719 20.309217l0 0c0 -1.5394402 1.2479621 -2.7874012 2.7874017 -2.7874012l0 0c0.7392645 0 1.4482512 0.29367065 1.9709902 0.81641006c0.5227394 0.5227394 0.816411 1.2317257 0.816411 1.9709911l0 0c0 1.5394402 -1.247962 2.7874012 -2.7874012 2.7874012l0 0c-1.5394397 0 -2.7874017 -1.247961 -2.7874017 -2.7874012z" fill-rule="evenodd"/><path fill="#000000" fill-opacity="0.0" d="m9.559684 20.309217l0 0c0 -1.5394402 1.247963 -2.7874012 2.7874022 -2.7874012l0 0c0.7392645 0 1.4482508 0.29367065 1.9709902 0.81641006c0.5227394 0.5227394 0.816411 1.2317257 0.816411 1.9709911l0 0c0 1.5394402 -1.247962 2.7874012 -2.7874012 2.7874012l0 0c-1.5394392 0 -2.7874022 -1.247961 -2.7874022 -2.7874012z" fill-rule="evenodd"/><path stroke="#6d9eeb" stroke-width="1.0" stroke-linejoin="round" stroke-linecap="butt" d="m9.559684 20.309217l0 0c0 -1.5394402 1.247963 -2.7874012 2.7874022 -2.7874012l0 0c0.7392645 0 1.4482508 0.29367065 1.9709902 0.81641006c0.5227394 0.5227394 0.816411 1.2317257 0.816411 1.9709911l0 0c0 1.5394402 -1.247962 2.7874012 -2.7874012 2.7874012l0 0c-1.5394392 0 -2.7874022 -1.247961 -2.7874022 -2.7874012z" fill-rule="evenodd"/><path fill="#000000" fill-opacity="0.0" d="m9.559684 13.1213045l0 0c0 -1.5394392 1.247963 -2.7874012 2.7874022 -2.7874012l0 0c0.7392645 0 1.4482508 0.2936716 1.9709902 0.816411c0.5227394 0.5227394 0.816411 1.2317257 0.816411 1.9709902l0 0c0 1.5394392 -1.247962 2.7874022 -2.7874012 2.7874022l0 0c-1.5394392 0 -2.7874022 -1.247963 -2.7874022 -2.7874022z" fill-rule="evenodd"/><path stroke="#6d9eeb" stroke-width="1.0" stroke-linejoin="round" stroke-linecap="butt" d="m9.559684 13.1213045l0 0c0 -1.5394392 1.247963 -2.7874012 2.7874022 -2.7874012l0 0c0.7392645 0 1.4482508 0.2936716 1.9709902 0.816411c0.5227394 0.5227394 0.816411 1.2317257 0.816411 1.9709902l0 0c0 1.5394392 -1.247962 2.7874022 -2.7874012 2.7874022l0 0c-1.5394392 0 -2.7874022 -1.247963 -2.7874022 -2.7874022z" fill-rule="evenodd"/><path fill="#000000" fill-opacity="0.0" d="m8.186176 1.1116034l0 16.661417" fill-rule="evenodd"/><path stroke="#6d9eeb" stroke-width="1.0" stroke-linejoin="round" stroke-linecap="butt" d="m8.186176 1.1116034l0 16.661417" fill-rule="evenodd"/><path fill="#000000" fill-opacity="0.0" d="m24.93195 1.4393497l-17.259842 -0.031496167" fill-rule="evenodd"/><path stroke="#6d9eeb" stroke-width="1.0" stroke-linejoin="round" stroke-linecap="butt" d="m24.93195 1.4393497l-17.259842 -0.031496167" fill-rule="evenodd"/><path fill="#000000" fill-opacity="0.0" d="m24.984251 17.41872l-17.322834 0" fill-rule="evenodd"/><path stroke="#6d9eeb" stroke-width="1.0" stroke-linejoin="round" stroke-linecap="butt" d="m24.984251 17.41872l-17.322834 0" fill-rule="evenodd"/><path fill="#000000" fill-opacity="0.0" d="m24.428747 1.570388l0.031496048 16.031496" fill-rule="evenodd"/><path stroke="#6d9eeb" stroke-width="1.0" stroke-linejoin="round" stroke-linecap="butt" d="m24.428747 1.570388l0.031496048 16.031496" fill-rule="evenodd"/><path fill="#000000" fill-opacity="0.0" d="m9.687598 5.8300858l0 0c0 -1.5394392 1.247963 -2.7874014 2.7874022 -2.7874014l0 0c0.7392645 0 1.4482508 0.29367185 1.9709902 0.816411c0.5227394 0.5227392 0.816411 1.2317255 0.816411 1.9709904l0 0c0 1.5394397 -1.247962 2.7874012 -2.7874012 2.7874012l0 0c-1.5394392 0 -2.7874022 -1.2479615 -2.7874022 -2.7874012z" fill-rule="evenodd"/><path stroke="#6d9eeb" stroke-width="1.0" stroke-linejoin="round" stroke-linecap="butt" d="m9.687598 5.8300858l0 0c0 -1.5394392 1.247963 -2.7874014 2.7874022 -2.7874014l0 0c0.7392645 0 1.4482508 0.29367185 1.9709902 0.816411c0.5227394 0.5227392 0.816411 1.2317255 0.816411 1.9709904l0 0c0 1.5394397 -1.247962 2.7874012 -2.7874012 2.7874012l0 0c-1.5394392 0 -2.7874022 -1.2479615 -2.7874022 -2.7874012z" fill-rule="evenodd"/><path fill="#000000" fill-opacity="0.0" d="m9.577705 13.017999l0 0c0 -1.5394392 1.247962 -2.7874022 2.7874012 -2.7874022l0 0c0.7392645 0 1.4482517 0.29367256 1.9709902 0.816411c0.5227394 0.5227394 0.816411 1.2317257 0.816411 1.9709911l0 0c0 1.5394392 -1.247962 2.7874012 -2.7874012 2.7874012l0 0c-1.5394392 0 -2.7874012 -1.247962 -2.7874012 -2.7874012z" fill-rule="evenodd"/><path stroke="#6d9eeb" stroke-width="1.0" stroke-linejoin="round" stroke-linecap="butt" d="m9.577705 13.017999l0 0c0 -1.5394392 1.247962 -2.7874022 2.7874012 -2.7874022l0 0c0.7392645 0 1.4482517 0.29367256 1.9709902 0.816411c0.5227394 0.5227394 0.816411 1.2317257 0.816411 1.9709911l0 0c0 1.5394392 -1.247962 2.7874012 -2.7874012 2.7874012l0 0c-1.5394392 0 -2.7874012 -1.247962 -2.7874012 -2.7874012z" fill-rule="evenodd"/><path fill="#000000" fill-opacity="0.0" d="m17.142918 13.017999l0 0c0 -1.5394392 1.247961 -2.7874022 2.7874012 -2.7874022l0 0c0.73926544 0 1.4482517 0.29367256 1.9709911 0.816411c0.5227394 0.5227394 0.81641006 1.2317257 0.81641006 1.9709911l0 0c0 1.5394392 -1.247961 2.7874012 -2.7874012 2.7874012l0 0c-1.5394402 0 -2.7874012 -1.247962 -2.7874012 -2.7874012z" fill-rule="evenodd"/><path stroke="#6d9eeb" stroke-width="1.0" stroke-linejoin="round" stroke-linecap="butt" d="m17.142918 13.017999l0 0c0 -1.5394392 1.247961 -2.7874022 2.7874012 -2.7874022l0 0c0.73926544 0 1.4482517 0.29367256 1.9709911 0.816411c0.5227394 0.5227394 0.81641006 1.2317257 0.81641006 1.9709911l0 0c0 1.5394392 -1.247961 2.7874012 -2.7874012 2.7874012l0 0c-1.5394402 0 -2.7874012 -1.247962 -2.7874012 -2.7874012z" fill-rule="evenodd"/><path fill="#000000" fill-opacity="0.0" d="m17.142918 5.8300858l0 0c0 -1.5394392 1.247961 -2.7874014 2.7874012 -2.7874014l0 0c0.73926544 0 1.4482517 0.29367185 1.9709911 0.816411c0.5227394 0.5227392 0.81641006 1.2317255 0.81641006 1.9709904l0 0c0 1.5394397 -1.247961 2.7874012 -2.7874012 2.7874012l0 0c-1.5394402 0 -2.7874012 -1.2479615 -2.7874012 -2.7874012z" fill-rule="evenodd"/><path stroke="#6d9eeb" stroke-width="1.0" stroke-linejoin="round" stroke-linecap="butt" d="m17.142918 5.8300858l0 0c0 -1.5394392 1.247961 -2.7874014 2.7874012 -2.7874014l0 0c0.73926544 0 1.4482517 0.29367185 1.9709911 0.816411c0.5227394 0.5227392 0.81641006 1.2317255 0.81641006 1.9709904l0 0c0 1.5394397 -1.247961 2.7874012 -2.7874012 2.7874012l0 0c-1.5394402 0 -2.7874012 -1.2479615 -2.7874012 -2.7874012z" fill-rule="evenodd"/></g></svg>