<svg version="1.1" height="25px" width="25px" viewBox="0.0 0.0 25.0 25.0" fill="none" stroke="none" stroke-linecap="square" stroke-miterlimit="10" xmlns:xlink="http://www.w3.org/1999/xlink" xmlns="http://www.w3.org/2000/svg"><clipPath id="p.0"><path d="m0 0l25.0 0l0 25.0l-25.0 0l0 -25.0z" clip-rule="nonzero"/></clipPath><g clip-path="url(#p.0)"><path fill="#000000" fill-opacity="0.0" d="m0 0l25.0 0l0 25.0l-25.0 0z" fill-rule="evenodd"/><path fill="#000000" fill-opacity="0.0" d="m0.5651399 5.4732137l-0.031496048 15.118111" fill-rule="evenodd"/><path stroke="#6d9eeb" stroke-width="1.0" stroke-linejoin="round" stroke-linecap="butt" d="m0.5651399 5.4732137l-0.031496048 15.118111" fill-rule="evenodd"/><path fill="#000000" fill-opacity="0.0" d="m20.24884 6.226781l-19.811024 -0.031496048" fill-rule="evenodd"/><path stroke="#6d9eeb" stroke-width="1.0" stroke-linejoin="round" stroke-linecap="butt" d="m20.24884 6.226781l-19.811024 -0.031496048" fill-rule="evenodd"/><path fill="#000000" fill-opacity="0.0" d="m20.278215 20.32021l0 -14.582677" fill-rule="evenodd"/><path stroke="#6d9eeb" stroke-width="1.0" stroke-linejoin="round" stroke-linecap="butt" d="m20.278215 20.32021l0 -14.582677" fill-rule="evenodd"/><path fill="#000000" fill-opacity="0.0" d="m0.20472442 20.07349l20.598425 -0.062992096" fill-rule="evenodd"/><path stroke="#6d9eeb" stroke-width="1.0" stroke-linejoin="round" stroke-linecap="butt" d="m0.20472442 20.07349l20.598425 -0.062992096" fill-rule="evenodd"/><path fill="#000000" fill-opacity="0.0" d="m24.372528 3.45702l-20.251968 0" fill-rule="evenodd"/><path stroke="#6d9eeb" stroke-width="1.0" stroke-linejoin="round" stroke-linecap="butt" d="m24.372528 3.45702l-20.251968 0" fill-rule="evenodd"/><path fill="#000000" fill-opacity="0.0" d="m24.62391 17.999268l0 -15.055119" fill-rule="evenodd"/><path stroke="#6d9eeb" stroke-width="1.0" stroke-linejoin="round" stroke-linecap="butt" d="m24.62391 17.999268l0 -15.055119" fill-rule="evenodd"/><path fill="#000000" fill-opacity="0.0" d="m0.40944883 5.8713913l3.9999998 -2.4881892" fill-rule="evenodd"/><path stroke="#6d9eeb" stroke-width="1.0" stroke-linejoin="round" stroke-linecap="butt" d="m0.40944883 5.8713913l3.9999998 -2.4881892" fill-rule="evenodd"/><path fill="#000000" fill-opacity="0.0" d="m20.575909 20.106255l4.2204723 -2.614174" fill-rule="evenodd"/><path stroke="#6d9eeb" stroke-width="1.0" stroke-linejoin="round" stroke-linecap="butt" d="m20.575909 20.106255l4.2204723 -2.614174" fill-rule="evenodd"/><path fill="#000000" fill-opacity="0.0" d="m20.408947 11.142792l-19.811024 -0.031496048" fill-rule="evenodd"/><path stroke="#6d9eeb" stroke-width="1.0" stroke-linejoin="round" stroke-linecap="butt" d="m20.408947 11.142792l-19.811024 -0.031496048" fill-rule="evenodd"/><path fill="#000000" fill-opacity="0.0" d="m20.444675 11.143l4.2204723 -2.614173" fill-rule="evenodd"/><path stroke="#6d9eeb" stroke-width="1.0" stroke-linejoin="round" stroke-linecap="butt" d="m20.444675 11.143l4.2204723 -2.614173" fill-rule="evenodd"/><path fill="#000000" fill-opacity="0.0" d="m19.909243 6.226989l4.2204723 -2.614173" fill-rule="evenodd"/><path stroke="#6d9eeb" stroke-width="1.0" stroke-linejoin="round" stroke-linecap="butt" d="m19.909243 6.226989l4.2204723 -2.614173" fill-rule="evenodd"/><path fill="#000000" fill-opacity="0.0" d="m3.5170603 10.3044615l0 -3.2125978" fill-rule="evenodd"/><path stroke="#6d9eeb" stroke-width="4.0" stroke-linejoin="round" stroke-linecap="butt" d="m3.5170603 10.3044615l0 -3.2125978" fill-rule="evenodd"/></g></svg>