<svg version="1.1" viewBox="0.0 0.0 25.0 25.0" fill="none" stroke="none" stroke-linecap="square" stroke-miterlimit="10" xmlns:xlink="http://www.w3.org/1999/xlink" xmlns="http://www.w3.org/2000/svg"><clipPath id="p.0"><path d="m0 0l25.0 0l0 25.0l-25.0 0l0 -25.0z" clip-rule="nonzero"/></clipPath><g clip-path="url(#p.0)"><path fill="#000000" fill-opacity="0.0" d="m0 0l25.0 0l0 25.0l-25.0 0z" fill-rule="evenodd"/><path fill="#000000" fill-opacity="0.0" d="m6.534115 6.7884345l0 17.563889l1.7283106 -0.07470894l-0.03762245 -2.337675l3.0521736 0l0 2.525652l3.4942446 0l0 -2.564211l3.2003155 0.03855896l0.07289505 2.487093l1.5072746 0l0 -17.677158z" fill-rule="evenodd"/><path stroke="#6d9eeb" stroke-width="1.0" stroke-linejoin="round" stroke-linecap="butt" d="m6.534115 6.7884345l0 17.563889l1.7283106 -0.07470894l-0.03762245 -2.337675l3.0521736 0l0 2.525652l3.4942446 0l0 -2.564211l3.2003155 0.03855896l0.07289505 2.487093l1.5072746 0l0 -17.677158z" fill-rule="evenodd"/><path fill="#000000" fill-opacity="0.0" d="m4.9939833 9.053935l1.1653547 0l0 1.6377954l-1.1653547 0z" fill-rule="evenodd"/><path stroke="#6d9eeb" stroke-width="1.0" stroke-linejoin="round" stroke-linecap="butt" d="m4.9939833 9.053935l1.1653547 0l0 1.6377954l-1.1653547 0z" fill-rule="evenodd"/><path fill="#000000" fill-opacity="0.0" d="m2.0498686 9.879098l0 0c0 -0.8088579 0.6557088 -1.4645672 1.464567 -1.4645672l0 0c0.38842726 0 0.76094556 0.1543026 1.0356052 0.42896175c0.27465963 0.2746601 0.42896175 0.6471777 0.42896175 1.0356054l0 0c0 0.8088579 -0.65570927 1.4645672 -1.464567 1.4645672l0 0c-0.80885816 0 -1.464567 -0.65570927 -1.464567 -1.4645672z" fill-rule="evenodd"/><path stroke="#6d9eeb" stroke-width="1.0" stroke-linejoin="round" stroke-linecap="butt" d="m2.0498686 9.879098l0 0c0 -0.8088579 0.6557088 -1.4645672 1.464567 -1.4645672l0 0c0.38842726 0 0.76094556 0.1543026 1.0356052 0.42896175c0.27465963 0.2746601 0.42896175 0.6471777 0.42896175 1.0356054l0 0c0 0.8088579 -0.65570927 1.4645672 -1.464567 1.4645672l0 0c-0.80885816 0 -1.464567 -0.65570927 -1.464567 -1.4645672z" fill-rule="evenodd"/><path fill="#000000" fill-opacity="0.0" d="m21.006016 10.713079l-1.1653538 0l0 -1.6377954l1.1653538 0z" fill-rule="evenodd"/><path stroke="#6d9eeb" stroke-width="1.0" stroke-linejoin="round" stroke-linecap="butt" d="m21.006016 10.713079l-1.1653538 0l0 -1.6377954l1.1653538 0z" fill-rule="evenodd"/><path fill="#000000" fill-opacity="0.0" d="m23.95013 9.887917l0 0c0 0.8088579 -0.6557083 1.4645672 -1.4645672 1.4645672l0 0c-0.38842583 0 -0.76094437 -0.1543026 -1.0356045 -0.42896175c-0.2746601 -0.27465916 -0.4289608 -0.6471777 -0.4289608 -1.0356054l0 0c0 -0.8088579 0.6557083 -1.4645662 1.4645653 -1.4645662l0 0c0.8088589 0 1.4645672 0.6557083 1.4645672 1.4645662z" fill-rule="evenodd"/><path stroke="#6d9eeb" stroke-width="1.0" stroke-linejoin="round" stroke-linecap="butt" d="m23.95013 9.887917l0 0c0 0.8088579 -0.6557083 1.4645672 -1.4645672 1.4645672l0 0c-0.38842583 0 -0.76094437 -0.1543026 -1.0356045 -0.42896175c-0.2746601 -0.27465916 -0.4289608 -0.6471777 -0.4289608 -1.0356054l0 0c0 -0.8088579 0.6557083 -1.4645662 1.4645653 -1.4645662l0 0c0.8088589 0 1.4645672 0.6557083 1.4645672 1.4645662z" fill-rule="evenodd"/><path fill="#000000" fill-opacity="0.0" d="m12.912661 7.050285l0 14.330708" fill-rule="evenodd"/><path stroke="#6d9eeb" stroke-width="1.0" stroke-linejoin="round" stroke-linecap="butt" d="m12.912661 7.050285l0 14.330708" fill-rule="evenodd"/><path fill="#000000" fill-opacity="0.0" d="m16.393702 7.050285l0 14.330708" fill-rule="evenodd"/><path stroke="#6d9eeb" stroke-width="1.0" stroke-linejoin="round" stroke-linecap="butt" d="m16.393702 7.050285l0 14.330708" fill-rule="evenodd"/><path fill="#000000" fill-opacity="0.0" d="m9.8092165 7.0933905l0 14.3307085" fill-rule="evenodd"/><path stroke="#6d9eeb" stroke-width="1.0" stroke-linejoin="round" stroke-linecap="butt" d="m9.8092165 7.0933905l0 14.3307085" fill-rule="evenodd"/><path fill="#000000" fill-opacity="0.0" d="m6.4238453 3.8687694l0.518209 -1.2925441l3.8782973 -0.7765008l0 -1.2072016l3.7073994 -0.04063648l0 1.2926428l4.570161 0.6899123l0.5623131 1.4222898z" fill-rule="evenodd"/><path stroke="#6d9eeb" stroke-width="1.0" stroke-linejoin="round" stroke-linecap="butt" d="m6.4238453 3.8687694l0.518209 -1.2925441l3.8782973 -0.7765008l0 -1.2072016l3.7073994 -0.04063648l0 1.2926428l4.570161 0.6899123l0.5623131 1.4222898z" fill-rule="evenodd"/></g></svg>